<svg id="svg" version="1.1" xmlns="http://www.w3.org/2000/svg" xmlns:xlink="http://www.w3.org/1999/xlink" width="400" height="440.9785932721712" viewBox="0, 0, 400,440.9785932721712"><g id="svgg"><path id="path0" d="M197.828 220.451 C 197.333 221.927,197.104 226.459,196.949 237.871 L 196.778 250.341 195.502 250.621 C 194.131 250.923,192.958 251.499,192.087 252.300 C 191.788 252.575,191.286 252.800,190.971 252.800 C 190.657 252.800,190.400 252.980,190.400 253.200 C 190.400 253.420,190.139 253.600,189.820 253.600 C 189.501 253.600,189.096 253.829,188.920 254.110 C 188.744 254.390,188.124 254.921,187.543 255.291 C 186.279 256.094,98.007 344.274,98.237 344.504 C 98.325 344.592,97.948 345.086,97.398 345.601 C 96.849 346.117,96.400 346.778,96.400 347.070 C 96.400 347.361,96.223 347.600,96.008 347.600 C 95.792 347.600,95.502 348.050,95.364 348.600 C 95.226 349.150,94.967 349.600,94.788 349.600 C 94.610 349.600,94.345 350.140,94.200 350.800 C 94.055 351.460,93.785 352.000,93.600 352.000 C 93.415 352.000,93.151 353.215,93.013 354.700 C 92.875 356.185,92.591 357.713,92.381 358.095 C 91.904 358.964,91.879 361.600,92.348 361.600 C 92.540 361.600,92.823 363.043,92.976 364.806 C 93.134 366.613,93.418 367.912,93.628 367.783 C 93.833 367.656,94.000 367.901,94.000 368.327 C 94.000 368.753,94.270 369.326,94.600 369.600 C 94.930 369.874,95.200 370.309,95.200 370.568 C 95.200 371.307,100.384 377.609,100.412 376.904 C 100.419 376.737,100.608 376.915,100.832 377.300 C 101.056 377.685,101.501 378.000,101.820 378.000 C 102.139 378.000,102.400 378.177,102.400 378.392 C 102.400 378.608,102.850 378.898,103.400 379.036 C 103.950 379.174,104.400 379.447,104.400 379.643 C 104.400 379.840,104.715 380.001,105.100 380.002 C 105.485 380.004,106.316 380.274,106.946 380.602 C 107.576 380.931,108.521 381.200,109.046 381.200 C 109.571 381.200,110.000 381.338,110.000 381.507 C 110.000 381.676,111.980 381.827,114.400 381.843 C 116.820 381.859,118.800 381.721,118.800 381.536 C 118.800 381.351,119.250 381.200,119.800 381.200 C 120.350 381.200,120.800 381.045,120.800 380.855 C 120.800 380.665,121.869 380.282,123.176 380.005 C 124.483 379.728,125.644 379.261,125.757 378.968 C 125.869 378.676,126.646 378.087,127.483 377.660 C 128.320 377.233,129.943 375.875,131.091 374.642 C 132.238 373.409,133.362 372.400,133.589 372.400 C 133.815 372.400,134.000 372.130,134.000 371.800 C 134.000 371.470,134.142 371.200,134.317 371.200 C 134.602 371.200,136.145 369.692,143.934 361.800 C 145.237 360.480,146.730 359.023,147.252 358.563 C 147.773 358.102,149.303 356.572,150.652 355.163 C 152.000 353.753,153.710 352.025,154.452 351.322 C 155.193 350.619,156.016 349.809,156.279 349.522 C 156.543 349.235,157.578 348.192,158.579 347.205 C 159.581 346.218,160.400 345.204,160.400 344.950 C 160.400 344.697,160.963 344.065,161.651 343.545 C 162.338 343.025,163.238 342.285,163.651 341.900 C 164.063 341.515,164.580 341.200,164.800 341.200 C 165.020 341.200,165.200 340.945,165.200 340.633 C 165.200 340.322,165.389 340.004,165.620 339.927 C 166.702 339.566,196.001 309.765,196.013 309.013 C 196.025 308.197,196.866 306.800,197.344 306.800 C 197.759 306.800,197.636 308.330,197.200 308.600 C 196.946 308.757,196.800 313.671,196.800 322.024 C 196.800 334.769,196.775 335.200,196.029 335.200 C 195.277 335.200,148.800 381.256,148.800 382.001 C 148.800 382.189,148.512 382.631,148.160 382.982 C 147.809 383.334,147.425 384.337,147.308 385.211 C 147.191 386.085,146.938 386.800,146.747 386.800 C 146.556 386.800,146.400 387.880,146.400 389.200 C 146.400 390.533,146.578 391.600,146.800 391.600 C 147.020 391.600,147.200 392.129,147.200 392.776 C 147.200 393.423,147.383 394.066,147.607 394.204 C 147.830 394.342,147.909 394.623,147.783 394.828 C 147.656 395.032,147.743 395.200,147.976 395.200 C 148.209 395.200,148.400 395.020,148.400 394.800 C 148.400 394.580,148.583 394.400,148.806 394.400 C 149.030 394.400,149.173 394.922,149.124 395.560 C 149.000 397.198,149.798 398.020,151.235 397.733 C 151.969 397.586,152.400 397.666,152.400 397.950 C 152.400 398.197,152.649 398.400,152.953 398.400 C 153.258 398.400,153.604 398.771,153.722 399.223 C 154.026 400.387,161.581 400.338,163.245 399.162 C 163.820 398.756,164.405 398.538,164.545 398.678 C 164.685 398.819,164.800 398.633,164.800 398.267 C 164.800 397.900,164.975 397.600,165.188 397.600 C 165.608 397.600,176.400 387.057,176.400 386.648 C 176.400 386.290,177.942 384.800,178.312 384.800 C 178.484 384.800,179.218 384.170,179.944 383.400 C 180.671 382.630,181.427 382.000,181.625 382.000 C 181.823 382.000,182.097 381.551,182.235 381.003 C 182.373 380.454,182.619 380.088,182.782 380.189 C 183.193 380.443,184.865 378.829,184.613 378.422 C 184.501 378.240,184.785 377.993,185.245 377.872 C 185.782 377.732,185.971 377.477,185.775 377.159 C 185.561 376.814,185.670 376.741,186.134 376.919 C 186.616 377.104,186.800 376.958,186.800 376.387 C 186.800 375.954,187.070 375.600,187.400 375.600 C 187.730 375.600,188.000 375.420,188.000 375.200 C 188.000 374.980,188.270 374.800,188.600 374.800 C 188.930 374.800,189.200 374.629,189.200 374.419 C 189.200 373.923,193.123 370.000,193.619 370.000 C 193.829 370.000,194.008 369.775,194.017 369.500 C 194.026 369.225,194.566 368.558,195.217 368.019 C 195.868 367.479,196.403 366.669,196.406 366.219 C 196.414 365.184,197.062 364.129,197.452 364.518 C 197.614 364.681,197.534 365.026,197.273 365.287 C 196.937 365.623,196.800 368.382,196.800 374.838 L 196.800 383.916 188.205 392.458 L 179.611 401.000 179.605 403.834 C 179.598 407.645,180.713 408.800,184.397 408.800 C 185.718 408.800,186.800 408.626,186.800 408.413 C 186.800 408.199,187.070 408.129,187.400 408.255 C 187.730 408.382,188.000 408.284,188.000 408.039 C 188.000 407.793,189.967 405.644,192.371 403.264 C 197.491 398.196,197.187 398.017,197.195 406.100 C 197.198 409.125,197.360 411.600,197.557 411.600 C 197.753 411.600,198.026 412.050,198.164 412.600 C 198.302 413.150,198.579 413.600,198.779 413.600 C 198.979 413.600,199.402 413.859,199.719 414.176 C 200.283 414.741,201.982 415.015,204.028 414.872 C 205.742 414.752,207.688 412.635,208.230 410.300 C 208.269 410.135,208.322 407.752,208.350 405.004 C 208.400 400.048,208.406 400.013,209.200 400.693 C 209.640 401.070,210.000 401.618,210.000 401.913 C 210.000 402.207,210.171 402.342,210.380 402.212 C 210.589 402.083,210.955 402.343,211.194 402.789 C 211.433 403.235,211.892 403.600,212.214 403.600 C 212.536 403.600,212.800 403.744,212.800 403.919 C 212.800 404.289,215.489 407.069,216.843 408.100 C 218.511 409.370,223.988 408.757,223.997 407.300 C 223.999 407.025,224.160 406.800,224.357 406.800 C 224.974 406.800,225.235 404.844,224.726 404.030 C 224.339 403.411,224.348 403.045,224.766 402.263 C 225.399 401.081,225.072 400.400,223.873 400.400 C 222.406 400.400,206.429 384.172,207.547 383.817 C 208.509 383.511,208.891 370.065,207.986 368.374 C 207.758 367.948,207.700 367.600,207.857 367.600 C 208.672 367.600,236.397 395.868,236.399 396.700 C 236.399 397.195,236.580 397.600,236.800 397.600 C 237.020 397.600,237.200 397.864,237.200 398.187 C 237.200 398.545,237.435 398.685,237.800 398.545 C 238.130 398.418,238.400 398.485,238.400 398.693 C 238.400 399.272,240.280 400.000,241.776 400.000 C 242.637 400.000,243.203 400.230,243.361 400.643 C 243.588 401.234,243.688 401.234,244.590 400.643 C 245.130 400.290,246.168 400.000,246.897 400.000 C 247.626 400.000,248.577 399.751,249.011 399.447 C 249.445 399.143,249.939 398.918,250.109 398.947 C 250.580 399.028,254.000 395.539,254.000 394.978 C 254.000 394.707,254.270 394.382,254.600 394.255 C 254.947 394.122,255.200 393.524,255.200 392.836 C 255.200 392.182,255.380 391.536,255.600 391.400 C 256.094 391.094,256.134 386.530,255.645 386.228 C 255.450 386.107,255.172 385.377,255.027 384.604 C 254.882 383.832,254.592 383.200,254.382 383.200 C 254.172 383.200,254.000 382.944,254.000 382.630 C 254.000 382.317,252.740 380.798,251.200 379.255 C 249.660 377.712,248.400 376.258,248.400 376.025 C 248.400 375.791,248.201 375.600,247.958 375.600 C 247.388 375.600,213.600 341.801,213.600 341.230 C 213.600 340.994,213.408 340.800,213.173 340.800 C 212.477 340.800,208.044 336.113,207.792 335.112 C 207.539 334.101,207.814 322.841,208.213 317.880 C 208.381 315.800,208.314 314.578,208.013 314.216 C 207.702 313.841,207.692 313.590,207.981 313.412 C 208.515 313.082,208.530 310.927,208.000 310.600 C 207.780 310.464,207.600 309.990,207.600 309.548 C 207.600 308.940,208.429 309.558,210.983 312.071 C 212.843 313.902,214.552 315.580,214.780 315.800 C 215.008 316.020,216.247 317.280,217.533 318.600 C 218.819 319.920,221.745 322.818,224.036 325.040 C 226.326 327.261,228.757 329.691,229.438 330.440 C 230.119 331.188,232.144 333.201,233.938 334.913 C 235.732 336.625,237.200 338.200,237.200 338.413 C 237.200 338.626,237.470 338.800,237.800 338.800 C 238.130 338.800,238.400 338.961,238.400 339.158 C 238.400 339.355,240.041 341.110,242.047 343.058 C 244.053 345.006,245.898 346.835,246.147 347.122 C 246.396 347.409,247.212 348.219,247.960 348.922 C 248.708 349.625,249.518 350.426,249.760 350.703 C 251.440 352.623,256.146 357.200,256.440 357.200 C 256.638 357.200,256.800 357.470,256.800 357.800 C 256.800 358.130,256.960 358.400,257.155 358.400 C 257.350 358.400,261.895 362.810,267.255 368.199 C 272.615 373.589,277.210 377.999,277.467 377.999 C 277.723 378.000,277.993 378.135,278.067 378.300 C 278.236 378.681,281.737 380.400,282.344 380.400 C 282.595 380.400,282.800 380.580,282.800 380.800 C 282.800 381.020,283.239 381.200,283.776 381.200 C 284.313 381.200,284.856 381.368,284.983 381.573 C 285.110 381.778,285.967 381.876,286.889 381.792 C 287.810 381.708,288.752 381.778,288.982 381.948 C 289.549 382.369,291.200 382.428,291.200 382.028 C 291.200 381.851,292.190 381.752,293.400 381.808 C 294.610 381.864,295.600 381.751,295.600 381.555 C 295.600 381.360,296.050 381.200,296.600 381.200 C 297.150 381.200,297.600 380.999,297.600 380.753 C 297.600 380.508,297.937 380.395,298.348 380.502 C 298.795 380.619,299.315 380.396,299.637 379.949 C 299.934 379.537,300.475 379.200,300.839 379.200 C 301.204 379.200,301.726 378.930,302.000 378.600 C 302.274 378.270,302.752 378.000,303.062 378.000 C 303.371 378.000,303.729 377.730,303.855 377.400 C 303.982 377.070,304.281 376.800,304.521 376.800 C 305.145 376.800,307.200 374.749,307.200 374.125 C 307.200 373.836,307.386 373.600,307.613 373.600 C 307.839 373.600,308.143 373.293,308.287 372.917 C 308.431 372.542,308.901 371.830,309.330 371.336 C 309.760 370.842,310.449 369.394,310.862 368.119 C 311.275 366.844,311.813 365.451,312.057 365.024 C 312.631 364.022,312.616 355.951,312.038 354.871 C 311.797 354.421,311.600 353.681,311.600 353.226 C 311.600 352.772,311.432 352.400,311.227 352.400 C 311.022 352.400,310.739 351.995,310.599 351.500 C 309.695 348.301,305.451 343.182,297.500 335.703 C 296.895 335.133,296.400 334.525,296.400 334.351 C 296.400 333.821,290.395 328.052,289.571 327.791 C 289.147 327.656,288.800 327.311,288.800 327.023 C 288.800 326.332,260.080 297.600,259.389 297.600 C 259.095 297.600,258.746 297.260,258.614 296.844 C 258.285 295.806,236.878 274.400,236.169 274.400 C 235.856 274.400,235.600 274.162,235.600 273.870 C 235.600 273.181,229.414 266.720,229.076 267.057 C 228.935 267.199,228.717 267.048,228.592 266.723 C 228.048 265.305,216.515 254.164,214.593 253.200 C 213.497 252.650,212.487 252.045,212.349 251.855 C 212.210 251.665,211.130 251.176,209.949 250.768 C 208.767 250.360,207.957 250.020,208.149 250.013 C 208.341 250.006,208.287 249.746,208.030 249.436 C 207.709 249.050,207.694 248.789,207.981 248.612 C 208.865 248.066,208.516 226.783,207.600 225.400 C 207.089 224.628,206.804 223.523,206.803 222.300 L 206.800 220.400 203.650 220.400 C 201.918 220.400,199.940 220.288,199.256 220.151 C 198.385 219.977,197.957 220.067,197.828 220.451 " stroke="none" fill="#149c5c" fill-rule="evenodd"></path><path id="path1" d="M200.487 24.624 C 198.746 25.843,198.509 26.993,198.203 35.704 C 198.036 40.480,197.742 44.112,197.512 44.255 C 197.291 44.391,194.296 41.708,190.856 38.294 C 184.208 31.696,183.560 31.200,181.606 31.200 C 178.804 31.200,177.200 32.982,177.200 36.094 C 177.200 37.726,177.356 37.908,187.600 48.200 L 198.000 58.649 198.000 64.701 C 198.000 68.640,197.848 70.847,197.564 71.022 C 197.313 71.177,188.926 63.133,177.864 52.128 C 167.269 41.588,158.060 32.726,157.400 32.435 C 156.740 32.145,155.871 31.738,155.470 31.531 C 153.875 30.711,149.471 31.048,147.095 32.173 C 139.999 35.530,137.938 43.692,142.600 49.982 C 144.713 52.833,196.158 104.000,196.911 104.000 C 197.282 104.000,197.683 104.405,197.804 104.900 C 198.230 106.650,197.823 132.926,197.368 133.078 C 197.130 133.157,181.470 117.808,162.568 98.969 C 135.205 71.698,127.568 64.303,125.100 62.691 C 123.097 61.383,122.000 60.407,122.000 59.933 C 122.000 59.364,121.692 59.200,120.624 59.200 C 119.867 59.200,119.136 59.020,119.000 58.800 C 118.689 58.297,108.800 58.261,108.800 58.762 C 108.800 58.962,107.900 59.249,106.800 59.400 C 105.700 59.551,104.800 59.835,104.800 60.030 C 104.800 60.225,104.349 60.498,103.799 60.636 C 103.248 60.774,102.384 61.363,101.878 61.944 C 101.372 62.525,100.719 63.053,100.427 63.117 C 99.474 63.328,95.662 67.412,95.384 68.521 C 95.235 69.114,94.967 69.600,94.788 69.600 C 94.610 69.600,94.345 70.140,94.200 70.800 C 94.055 71.460,93.771 72.000,93.568 72.000 C 93.012 72.000,93.127 73.504,93.700 73.735 C 93.999 73.856,93.918 73.950,93.500 73.968 C 93.033 73.989,92.800 74.325,92.800 74.976 C 92.800 75.513,92.620 76.064,92.400 76.200 C 91.585 76.704,91.926 81.526,92.842 82.442 C 93.591 83.191,93.654 83.567,93.410 85.842 C 93.225 87.576,93.276 88.400,93.568 88.400 C 93.806 88.400,94.000 88.766,94.000 89.213 C 94.000 89.659,94.250 90.121,94.555 90.238 C 94.860 90.355,95.217 90.985,95.348 91.638 C 95.478 92.290,96.038 93.244,96.592 93.758 C 97.147 94.272,97.600 94.896,97.600 95.146 C 97.600 95.396,97.780 95.600,98.000 95.600 C 98.220 95.600,98.400 95.870,98.400 96.200 C 98.400 96.530,98.676 96.800,99.013 96.800 C 99.349 96.800,99.742 97.115,99.885 97.500 C 100.106 98.095,101.122 99.148,103.695 101.452 C 103.973 101.700,104.695 102.484,105.300 103.193 C 105.905 103.902,106.400 104.395,106.400 104.288 C 106.400 104.181,107.750 105.430,109.400 107.064 C 111.050 108.698,112.400 110.207,112.400 110.418 C 112.400 110.628,112.670 110.800,113.000 110.800 C 113.330 110.800,113.600 111.070,113.600 111.400 C 113.600 111.730,113.870 112.000,114.200 112.000 C 114.530 112.000,114.800 112.270,114.800 112.600 C 114.800 112.930,115.070 113.200,115.400 113.200 C 115.730 113.200,116.000 113.470,116.000 113.800 C 116.000 114.130,116.270 114.400,116.600 114.400 C 116.930 114.400,117.200 114.580,117.200 114.800 C 117.200 115.317,118.672 116.795,118.930 116.537 C 119.038 116.428,119.246 116.713,119.390 117.170 C 119.535 117.626,119.816 118.000,120.014 118.000 C 120.212 118.000,122.536 120.205,125.179 122.900 C 131.114 128.952,130.471 128.311,138.300 136.005 C 141.875 139.518,144.800 142.585,144.800 142.820 C 144.800 143.055,144.992 143.128,145.227 142.983 C 145.462 142.838,145.753 143.097,145.874 143.560 C 145.994 144.022,146.342 144.400,146.647 144.400 C 146.951 144.400,147.200 144.670,147.200 145.000 C 147.200 145.330,147.470 145.600,147.800 145.600 C 148.130 145.600,148.400 145.870,148.400 146.200 C 148.400 146.530,148.670 146.800,149.000 146.800 C 149.330 146.800,149.600 146.971,149.600 147.181 C 149.600 147.677,153.523 151.600,154.019 151.600 C 154.229 151.600,154.400 151.870,154.400 152.200 C 154.400 152.530,154.581 152.800,154.803 152.800 C 155.286 152.800,160.800 158.371,160.800 158.859 C 160.800 159.046,161.070 159.200,161.400 159.200 C 161.730 159.200,162.000 159.470,162.000 159.800 C 162.000 160.130,162.270 160.400,162.600 160.400 C 162.930 160.400,163.200 160.670,163.200 161.000 C 163.200 161.330,163.470 161.600,163.800 161.600 C 164.130 161.600,164.400 161.827,164.400 162.105 C 164.400 162.383,164.805 162.788,165.300 163.005 C 165.795 163.222,166.378 163.805,166.595 164.300 C 166.812 164.795,167.217 165.200,167.495 165.200 C 167.773 165.200,168.000 165.470,168.000 165.800 C 168.000 166.130,168.270 166.400,168.600 166.400 C 168.930 166.400,169.200 166.670,169.200 167.000 C 169.200 167.330,169.470 167.600,169.800 167.600 C 170.130 167.600,170.400 167.870,170.400 168.200 C 170.400 168.530,170.670 168.800,171.000 168.800 C 171.330 168.800,171.600 168.971,171.600 169.181 C 171.600 169.550,175.461 173.600,175.813 173.600 C 176.087 173.600,182.886 180.579,184.000 182.004 C 185.506 183.930,186.008 184.400,186.561 184.400 C 186.838 184.400,187.301 184.841,187.590 185.381 C 187.878 185.920,188.584 186.551,189.157 186.783 C 189.731 187.014,190.920 187.613,191.800 188.112 C 192.680 188.611,194.165 189.248,195.100 189.526 L 196.800 190.032 196.854 200.516 C 196.884 206.282,196.877 212.035,196.840 213.300 C 196.788 215.052,196.907 215.600,197.339 215.600 C 197.957 215.600,198.386 216.774,198.395 218.486 C 198.402 220.017,199.399 220.400,203.374 220.400 L 206.800 220.400 206.800 218.480 C 206.800 217.424,207.025 216.318,207.300 216.021 C 207.700 215.590,207.700 215.539,207.300 215.765 C 206.973 215.950,206.800 215.772,206.800 215.251 C 206.800 214.805,207.153 214.342,207.600 214.200 C 208.872 213.796,208.849 191.396,207.577 190.993 C 205.775 190.421,206.760 188.848,209.691 187.614 C 213.993 185.805,213.771 186.015,259.057 140.794 C 282.849 117.037,302.503 97.600,302.734 97.600 C 302.964 97.600,303.264 97.780,303.400 98.000 C 303.807 98.659,304.336 98.454,304.472 97.584 C 304.542 97.135,304.771 96.789,304.980 96.814 C 305.189 96.839,305.503 96.474,305.677 96.004 C 305.851 95.534,306.175 95.261,306.397 95.398 C 306.618 95.535,306.800 95.374,306.800 95.040 C 306.800 94.706,307.262 94.004,307.826 93.481 C 308.390 92.958,308.892 92.258,308.940 91.925 C 308.989 91.592,309.342 90.842,309.725 90.258 C 310.108 89.674,310.529 88.654,310.662 87.990 C 310.795 87.326,311.060 86.686,311.252 86.568 C 311.799 86.230,311.659 84.908,311.051 84.675 C 310.630 84.513,310.549 83.806,310.705 81.631 C 311.743 67.125,296.565 55.723,283.000 60.818 C 278.118 62.652,276.945 63.734,241.995 98.639 C 223.182 117.427,207.567 132.800,207.295 132.800 C 206.403 132.800,206.683 130.124,207.600 129.884 C 208.376 129.681,208.400 129.338,208.400 118.264 C 208.400 107.205,208.375 106.846,207.600 106.600 C 206.250 106.172,206.541 104.228,208.100 103.252 C 211.017 101.426,262.327 49.492,263.219 47.463 C 267.404 37.940,257.143 27.847,247.736 32.231 C 245.717 33.173,242.822 35.887,226.383 52.260 C 215.924 62.677,207.239 71.200,207.083 71.200 C 206.397 71.200,206.839 68.807,207.600 68.400 C 208.314 68.018,208.400 67.562,208.400 64.148 C 208.400 60.662,208.330 60.307,207.600 60.116 C 205.444 59.552,206.474 58.163,216.567 48.017 C 222.806 41.746,226.435 37.801,226.611 37.097 C 227.279 34.438,225.851 31.960,223.217 31.205 C 221.261 30.644,220.224 31.361,213.927 37.631 C 206.855 44.671,207.208 44.699,207.166 37.100 C 207.118 28.294,206.840 26.549,205.266 25.143 C 203.808 23.839,201.902 23.633,200.487 24.624 M186.400 182.843 C 186.400 183.039,186.130 183.200,185.800 183.200 C 185.470 183.200,185.200 182.936,185.200 182.613 C 185.200 182.255,185.435 182.115,185.800 182.255 C 186.130 182.382,186.400 182.646,186.400 182.843 M197.898 204.300 C 197.828 206.665,197.770 204.730,197.770 200.000 C 197.770 195.270,197.828 193.335,197.898 195.700 C 197.969 198.065,197.969 201.935,197.898 204.300 " stroke="none" fill="#fbbc06" fill-rule="evenodd"></path><path id="path2" d="M59.600 109.756 C 59.600 109.842,60.230 109.986,61.000 110.076 C 61.770 110.166,62.400 110.096,62.400 109.920 C 62.400 109.744,61.770 109.600,61.000 109.600 C 60.230 109.600,59.600 109.670,59.600 109.756 M62.888 110.229 C 62.435 111.038,59.237 111.507,58.816 110.825 C 58.468 110.262,54.800 110.646,54.800 111.245 C 54.800 111.440,54.350 111.600,53.800 111.600 C 52.686 111.600,52.427 112.268,53.462 112.471 C 53.963 112.569,53.859 112.741,53.036 113.182 C 52.084 113.690,51.902 113.690,51.580 113.182 C 51.328 112.783,51.210 112.757,51.206 113.100 C 51.203 113.375,50.928 113.600,50.596 113.600 C 50.264 113.600,49.684 113.960,49.307 114.400 C 48.930 114.840,48.380 115.200,48.084 115.200 C 47.718 115.200,47.627 115.487,47.799 116.100 C 47.979 116.738,47.941 116.840,47.671 116.449 C 47.125 115.660,46.328 116.306,46.580 117.334 C 46.697 117.810,46.689 117.975,46.563 117.700 C 46.284 117.093,45.600 117.036,45.600 117.619 C 45.600 117.850,45.175 118.435,44.656 118.919 C 44.136 119.404,43.572 120.242,43.403 120.781 C 43.233 121.321,42.848 122.009,42.547 122.310 C 42.246 122.611,42.000 123.189,42.000 123.595 C 42.000 124.001,41.775 124.408,41.500 124.500 C 41.130 124.624,41.023 125.929,41.088 129.520 C 41.164 133.746,41.087 134.426,40.488 134.775 C 40.099 135.002,40.017 135.181,40.300 135.188 C 40.586 135.195,40.800 135.713,40.800 136.400 C 40.800 137.200,41.000 137.600,41.400 137.600 C 41.730 137.600,42.000 137.780,42.000 138.000 C 42.000 138.220,41.820 138.400,41.600 138.400 C 41.380 138.400,41.200 138.754,41.200 139.187 C 41.200 139.705,41.396 139.900,41.771 139.756 C 42.189 139.595,42.283 139.762,42.121 140.380 C 41.898 141.233,43.522 145.200,44.094 145.200 C 44.262 145.200,44.400 145.393,44.400 145.628 C 44.400 146.321,52.926 154.623,53.100 154.100 C 53.207 153.778,53.520 153.867,54.067 154.377 C 54.620 154.892,54.792 155.395,54.611 155.965 C 54.459 156.444,54.522 156.800,54.759 156.800 C 54.986 156.800,56.474 158.089,58.065 159.664 C 59.656 161.239,61.023 162.331,61.104 162.089 C 61.290 161.529,62.800 162.775,62.800 163.489 C 62.800 164.138,62.310 164.143,61.633 163.500 C 61.219 163.107,61.222 163.193,61.649 163.900 C 61.948 164.395,62.446 164.800,62.756 164.800 C 63.300 164.800,67.306 168.726,67.772 169.716 C 67.949 170.091,68.052 170.088,68.232 169.703 C 68.666 168.776,70.106 169.931,69.895 171.035 C 69.794 171.566,69.855 172.000,70.032 172.000 C 70.464 172.000,74.025 175.496,74.897 176.776 C 75.281 177.339,75.596 177.575,75.597 177.300 C 75.601 176.631,76.324 176.667,77.029 177.371 C 77.701 178.043,77.779 178.800,77.176 178.800 C 76.943 178.800,76.871 178.992,77.016 179.227 C 77.161 179.461,77.371 179.562,77.482 179.451 C 77.691 179.243,82.077 183.661,83.275 185.285 L 83.949 186.200 83.716 185.255 C 83.501 184.380,83.551 184.345,84.381 184.790 C 85.038 185.141,85.230 185.531,85.095 186.235 C 84.994 186.766,85.052 187.200,85.223 187.200 C 85.717 187.200,90.399 192.011,90.412 192.532 C 90.419 192.789,90.615 192.672,90.848 192.271 C 91.251 191.579,91.312 191.577,92.036 192.233 C 93.015 193.119,93.057 194.173,92.100 193.847 C 91.655 193.695,91.740 193.862,92.334 194.304 C 94.001 195.546,97.600 199.154,97.600 199.583 C 97.600 199.812,97.780 200.000,98.000 200.000 C 98.220 200.000,98.400 199.723,98.400 199.384 C 98.400 198.883,98.555 198.913,99.238 199.550 C 99.816 200.088,99.994 200.590,99.811 201.165 C 99.644 201.692,99.721 202.000,100.022 202.000 C 100.649 202.000,105.263 206.719,105.888 208.000 C 106.156 208.550,106.360 208.730,106.341 208.400 C 106.253 206.919,106.404 206.773,107.228 207.540 C 107.683 207.964,107.998 208.584,107.928 208.918 C 107.857 209.251,108.925 210.607,110.300 211.930 C 111.675 213.254,112.800 214.441,112.800 214.568 C 112.800 214.696,107.151 214.800,100.246 214.800 L 87.692 214.800 86.981 213.714 C 86.589 213.117,78.199 204.567,68.335 194.713 C 58.471 184.859,50.400 176.614,50.400 176.391 C 50.400 176.167,49.995 176.052,49.500 176.134 C 49.005 176.216,48.825 176.206,49.100 176.112 C 49.375 176.018,49.600 175.775,49.600 175.571 C 49.600 175.367,49.465 175.244,49.300 175.299 C 49.135 175.353,45.888 172.293,42.085 168.499 C 38.282 164.704,34.972 161.600,34.729 161.600 C 34.487 161.600,34.078 161.312,33.821 160.961 C 32.919 159.728,22.446 159.698,22.917 160.929 C 23.025 161.214,22.666 161.416,22.006 161.440 C 21.277 161.466,20.400 162.028,19.358 163.135 C 16.935 165.710,16.799 165.907,16.542 167.192 C 16.409 167.856,16.143 168.400,15.950 168.400 C 15.758 168.400,15.600 168.940,15.600 169.600 C 15.600 170.260,15.780 170.800,16.000 170.800 C 16.522 170.800,16.522 174.677,16.000 175.000 C 15.389 175.378,15.503 176.923,16.125 176.684 C 16.499 176.541,16.604 176.794,16.491 177.564 C 16.394 178.225,16.578 178.850,16.966 179.172 C 17.315 179.461,17.600 179.850,17.600 180.036 C 17.600 180.222,25.351 188.120,34.824 197.587 L 52.049 214.800 44.855 214.800 L 37.662 214.800 28.813 205.950 C 21.743 198.880,19.751 197.100,18.906 197.100 C 17.911 197.100,17.893 197.068,18.601 196.550 C 19.310 196.032,19.293 196.000,18.310 196.000 C 17.736 196.000,17.185 196.225,17.086 196.500 C 16.945 196.889,16.727 196.896,16.104 196.529 C 15.562 196.210,15.171 196.189,14.896 196.464 C 14.622 196.738,14.403 196.729,14.222 196.435 C 13.771 195.707,13.069 195.939,11.500 197.336 C 9.981 198.688,9.620 199.860,10.463 200.703 C 10.814 201.054,10.790 201.331,10.363 201.844 C 9.743 202.592,9.814 203.785,10.534 204.698 C 11.702 206.180,17.256 211.600,17.607 211.600 C 17.823 211.600,17.955 211.739,17.900 211.908 C 17.845 212.077,18.295 212.750,18.900 213.404 C 20.804 215.460,20.543 215.600,14.800 215.600 C 11.375 215.600,9.600 215.454,9.600 215.172 C 9.600 214.388,7.806 214.987,7.403 215.905 C 7.184 216.404,6.811 216.736,6.574 216.645 C 6.337 216.554,5.929 216.822,5.668 217.240 C 5.378 217.704,5.350 218.000,5.597 218.000 C 5.818 218.000,6.000 218.270,6.000 218.600 C 6.000 218.930,5.741 219.200,5.425 219.200 C 4.206 219.200,4.530 222.423,5.900 223.913 C 6.175 224.212,6.400 224.585,6.400 224.742 C 6.400 225.896,8.884 226.400,14.562 226.400 C 17.773 226.400,20.400 226.503,20.400 226.629 C 20.400 226.891,17.160 230.370,15.452 231.943 C 10.376 236.615,8.834 238.820,10.259 239.367 C 10.882 239.606,10.999 240.800,10.400 240.800 C 10.180 240.800,10.021 241.475,10.046 242.300 C 10.072 243.125,10.175 243.485,10.276 243.100 C 10.376 242.715,10.715 242.400,11.029 242.400 C 11.688 242.400,11.743 242.754,11.215 243.589 C 10.969 243.978,11.005 244.283,11.321 244.483 C 12.055 244.950,12.480 244.857,12.159 244.300 C 11.992 244.010,12.024 243.940,12.236 244.133 C 12.436 244.317,12.603 244.587,12.606 244.733 C 12.627 245.629,13.457 246.000,15.440 246.000 C 18.086 246.000,16.874 246.972,28.286 235.700 L 37.701 226.400 44.451 226.400 C 48.163 226.400,51.200 226.478,51.200 226.573 C 51.200 226.668,43.469 234.476,34.020 243.925 C 23.189 254.755,16.742 261.493,16.575 262.156 C 16.430 262.734,16.151 263.306,15.956 263.427 C 15.467 263.730,15.505 265.600,16.000 265.600 C 16.220 265.600,16.400 265.780,16.400 266.000 C 16.400 266.220,16.130 266.400,15.800 266.400 C 15.356 266.400,15.200 266.867,15.200 268.200 C 15.200 269.533,15.356 270.000,15.800 270.000 C 16.130 270.000,16.400 270.270,16.400 270.600 C 16.400 270.930,16.220 271.200,16.000 271.200 C 15.780 271.200,15.600 271.560,15.600 272.000 C 15.600 272.440,15.760 272.800,15.957 272.800 C 16.153 272.800,16.430 273.265,16.573 273.833 C 16.715 274.401,17.831 275.841,19.051 277.033 C 21.087 279.021,21.649 279.382,22.500 279.247 C 22.665 279.221,22.800 279.457,22.800 279.771 C 22.800 280.500,26.410 280.989,29.544 280.684 C 31.790 280.465,33.642 279.723,35.738 278.200 C 37.364 277.018,87.200 227.222,87.200 226.779 C 87.200 226.549,91.994 226.400,99.400 226.400 C 108.622 226.400,111.600 226.517,111.600 226.880 C 111.600 227.253,111.707 227.253,112.080 226.880 C 112.344 226.616,112.791 226.400,113.073 226.400 C 113.355 226.400,112.974 227.030,112.226 227.800 C 111.365 228.687,110.638 229.113,110.243 228.961 C 109.411 228.642,108.288 229.817,108.572 230.711 C 108.942 231.879,106.194 234.249,105.291 233.541 C 104.681 233.063,104.658 233.075,105.099 233.639 C 105.512 234.170,105.426 234.476,104.591 235.439 C 103.837 236.309,103.503 236.470,103.257 236.081 C 102.994 235.665,102.830 235.681,102.430 236.164 C 102.156 236.494,102.050 236.957,102.195 237.192 C 102.341 237.427,102.311 237.594,102.130 237.563 C 101.123 237.388,100.718 237.619,101.140 238.128 C 101.897 239.040,98.265 242.308,97.319 241.565 C 96.654 241.042,96.644 241.056,97.185 241.743 C 97.706 242.406,97.687 242.547,97.008 243.043 C 95.990 243.788,95.569 243.746,95.882 242.930 C 96.024 242.561,95.493 242.965,94.703 243.827 C 93.740 244.878,93.419 245.488,93.730 245.680 C 94.075 245.894,94.062 246.098,93.680 246.480 C 93.262 246.898,93.095 246.882,92.783 246.397 C 92.338 245.704,91.529 246.549,91.846 247.375 C 92.076 247.975,90.948 249.481,90.559 249.093 C 90.391 248.924,90.466 248.574,90.727 248.313 C 91.507 247.533,91.260 247.143,90.464 247.900 C 89.945 248.394,89.846 248.752,90.127 249.117 C 90.398 249.468,90.372 249.788,90.046 250.114 C 89.673 250.487,89.476 250.461,89.157 249.997 C 88.842 249.537,88.806 249.607,89.001 250.300 C 89.261 251.227,88.667 251.555,88.173 250.757 C 88.000 250.476,87.564 250.733,86.988 251.457 C 86.389 252.208,86.226 252.692,86.512 252.869 C 86.818 253.059,86.793 253.326,86.429 253.765 C 85.785 254.541,85.147 254.218,85.484 253.287 C 85.632 252.879,85.395 253.006,84.903 253.599 C 84.368 254.242,84.224 254.691,84.499 254.861 C 85.188 255.287,80.754 259.639,79.905 259.370 C 79.517 259.247,79.200 259.299,79.200 259.487 C 79.200 259.674,78.651 260.152,77.980 260.548 C 76.975 261.142,76.845 261.373,77.247 261.856 C 77.988 262.750,76.318 264.362,75.422 263.618 C 75.056 263.315,74.800 263.273,74.800 263.518 C 74.800 263.746,75.025 264.016,75.300 264.117 C 75.689 264.259,75.678 264.422,75.250 264.850 C 74.822 265.278,74.659 265.289,74.517 264.900 C 74.416 264.625,74.146 264.400,73.918 264.400 C 73.671 264.400,73.709 264.649,74.012 265.014 C 74.684 265.824,73.188 267.428,72.449 266.689 C 72.117 266.357,72.000 266.417,72.000 266.920 C 72.000 267.294,71.743 267.600,71.429 267.600 C 70.486 267.600,69.508 268.807,69.985 269.382 C 70.642 270.174,69.016 271.477,68.208 270.806 C 67.844 270.505,67.600 270.469,67.600 270.718 C 67.600 270.946,67.825 271.225,68.100 271.336 C 68.480 271.490,68.461 271.636,68.019 271.943 C 67.700 272.165,67.297 272.260,67.124 272.153 C 66.951 272.046,66.903 272.204,67.019 272.504 C 67.298 273.232,65.657 274.740,65.269 274.112 C 65.079 273.803,64.696 273.959,64.086 274.592 C 63.436 275.267,63.326 275.591,63.693 275.753 C 64.042 275.907,64.014 275.966,63.600 275.941 C 62.444 275.872,62.084 276.005,61.863 276.580 C 61.715 276.967,61.833 277.085,62.220 276.937 C 63.101 276.599,62.913 277.354,61.874 278.330 C 60.755 279.382,60.338 279.441,60.677 278.500 C 60.837 278.059,60.542 278.208,59.879 278.905 C 59.302 279.513,58.919 280.244,59.029 280.530 C 59.329 281.313,57.647 282.723,57.226 282.041 C 56.797 281.348,56.314 282.111,56.641 282.964 C 56.776 283.314,56.686 283.600,56.443 283.600 C 56.199 283.600,56.000 283.426,56.000 283.213 C 56.000 282.472,54.953 283.233,54.210 284.513 C 53.491 285.751,52.938 286.288,52.300 286.364 C 51.713 286.434,48.846 289.659,48.957 290.125 C 49.018 290.386,48.993 290.465,48.901 290.300 C 48.617 289.793,48.000 289.968,48.000 290.555 C 48.000 290.861,47.164 291.959,46.142 292.996 C 44.655 294.504,44.395 294.960,44.842 295.278 C 45.281 295.591,45.252 295.628,44.706 295.453 C 44.267 295.312,43.858 295.518,43.592 296.015 C 43.291 296.578,43.299 296.800,43.619 296.800 C 43.865 296.800,43.984 297.025,43.883 297.300 C 43.783 297.575,43.504 297.757,43.264 297.705 C 43.025 297.652,42.932 297.877,43.057 298.205 C 43.201 298.580,43.048 298.800,42.643 298.800 C 42.289 298.800,42.000 299.055,42.000 299.367 C 42.000 299.678,41.775 300.015,41.500 300.114 C 41.107 300.257,41.103 300.470,41.481 301.112 C 41.877 301.783,41.851 301.972,41.337 302.169 C 40.860 302.352,40.775 302.739,40.975 303.809 C 41.178 304.890,41.092 305.267,40.599 305.456 C 39.747 305.783,39.805 311.200,40.661 311.200 C 41.266 311.200,41.398 312.230,40.838 312.577 C 40.292 312.914,40.808 314.400,41.470 314.400 C 41.788 314.400,41.934 314.583,41.796 314.807 C 41.658 315.030,41.379 315.111,41.177 314.986 C 40.975 314.861,40.916 315.038,41.047 315.379 C 41.178 315.721,41.536 316.000,41.843 316.000 C 42.149 316.000,42.400 316.270,42.400 316.600 C 42.400 317.327,41.746 317.396,41.465 316.700 C 41.344 316.401,41.250 316.482,41.232 316.900 C 41.214 317.285,41.366 317.600,41.568 317.600 C 41.771 317.600,42.060 318.164,42.212 318.853 C 42.408 319.749,42.583 319.952,42.822 319.564 C 43.024 319.237,42.967 318.885,42.679 318.680 C 42.344 318.441,42.380 318.391,42.800 318.512 C 43.168 318.617,43.359 319.069,43.294 319.681 C 43.130 321.235,48.988 327.200,50.679 327.200 C 51.667 327.200,51.964 327.403,52.168 328.216 C 52.309 328.775,52.584 329.134,52.779 329.013 C 52.975 328.892,53.420 329.077,53.768 329.425 C 54.115 329.773,54.400 329.873,54.400 329.648 C 54.400 329.424,54.085 329.056,53.700 328.832 C 53.075 328.468,53.096 328.423,53.900 328.412 C 54.465 328.405,54.800 328.639,54.800 329.043 C 54.800 329.457,55.019 329.602,55.415 329.450 C 55.765 329.315,56.128 329.469,56.258 329.807 C 56.383 330.133,56.811 330.400,57.209 330.400 C 57.608 330.400,58.024 330.625,58.135 330.900 C 58.246 331.175,58.351 330.995,58.368 330.500 C 58.387 329.971,58.653 329.600,59.014 329.600 C 59.504 329.600,59.542 329.761,59.200 330.400 C 58.785 331.175,58.894 331.200,62.686 331.188 C 65.570 331.179,66.414 331.067,65.892 330.763 C 65.112 330.310,65.315 329.600,66.224 329.600 C 66.541 329.600,66.800 329.889,66.800 330.243 C 66.800 330.665,67.018 330.802,67.433 330.643 C 67.781 330.509,68.141 330.400,68.233 330.400 C 68.325 330.400,68.400 330.130,68.400 329.800 C 68.400 329.470,68.599 329.200,68.843 329.200 C 69.086 329.200,69.186 329.461,69.063 329.780 C 68.683 330.771,72.673 328.536,73.133 327.500 C 73.207 327.335,73.541 327.200,73.876 327.200 C 74.809 327.200,77.135 325.205,83.624 318.835 C 86.894 315.626,90.521 312.100,91.684 310.999 C 92.848 309.899,94.248 308.414,94.796 307.699 C 95.343 306.985,95.968 306.400,96.184 306.400 C 96.692 306.400,101.200 301.945,101.200 301.444 C 101.200 301.056,103.258 299.059,106.566 296.235 C 107.575 295.374,108.400 294.509,108.400 294.312 C 108.400 293.855,112.182 290.000,112.631 290.000 C 113.124 290.000,116.400 286.709,116.400 286.213 C 116.400 285.982,117.137 285.165,118.037 284.397 C 120.177 282.571,123.397 279.361,125.400 277.055 C 126.280 276.042,127.180 275.206,127.400 275.196 C 127.847 275.177,131.600 271.457,131.600 271.032 C 131.600 270.610,134.234 268.000,134.659 268.000 C 134.867 268.000,136.068 266.875,137.328 265.500 C 140.177 262.390,140.790 261.777,143.900 258.928 C 145.275 257.668,146.400 256.467,146.400 256.259 C 146.400 255.830,149.012 253.200,149.439 253.200 C 149.802 253.200,154.400 248.560,154.400 248.193 C 154.400 247.791,156.136 246.015,156.537 246.007 C 157.057 245.996,161.600 241.377,161.600 240.859 C 161.600 240.607,161.784 240.400,162.010 240.400 C 162.459 240.400,168.400 234.624,168.400 234.187 C 168.400 234.037,168.895 233.259,169.500 232.458 C 171.118 230.313,171.557 229.412,171.838 227.652 L 172.091 226.069 184.354 226.295 L 196.617 226.520 197.119 225.418 C 197.743 224.048,197.811 217.542,197.213 216.425 C 196.783 215.620,196.482 215.600,184.810 215.600 C 175.674 215.600,172.773 215.482,172.532 215.100 C 172.359 214.825,171.884 213.617,171.475 212.414 C 171.067 211.212,170.388 209.745,169.966 209.153 C 169.545 208.561,169.200 207.894,169.200 207.672 C 169.200 207.449,169.058 207.207,168.885 207.133 C 168.712 207.060,167.947 206.198,167.185 205.218 C 165.555 203.120,164.022 201.600,163.538 201.600 C 163.131 201.600,157.200 195.540,157.200 195.124 C 157.200 194.727,81.627 119.200,81.230 119.200 C 81.053 119.200,79.956 118.262,78.791 117.116 C 77.627 115.969,76.027 114.687,75.237 114.266 C 74.447 113.844,73.710 113.387,73.600 113.250 C 73.201 112.753,70.719 111.600,70.048 111.600 C 69.669 111.600,69.176 111.416,68.952 111.192 C 68.727 110.967,67.346 110.671,65.883 110.535 C 64.420 110.398,63.318 110.132,63.435 109.943 C 63.552 109.754,63.556 109.600,63.443 109.600 C 63.331 109.600,63.081 109.883,62.888 110.229 M22.400 215.447 C 22.400 215.531,21.939 215.600,21.376 215.600 C 20.813 215.600,20.454 215.437,20.577 215.238 C 20.782 214.906,22.400 215.092,22.400 215.447 M51.200 288.776 C 51.200 289.248,50.420 289.753,50.133 289.467 C 49.847 289.180,50.352 288.400,50.824 288.400 C 51.031 288.400,51.200 288.569,51.200 288.776 M196.900 307.793 C 196.900 308.339,197.058 308.688,197.250 308.569 C 197.442 308.450,197.600 308.003,197.600 307.576 C 197.600 307.149,197.442 306.800,197.250 306.800 C 197.058 306.800,196.900 307.247,196.900 307.793 M196.006 308.700 C 196.003 309.195,196.180 309.600,196.400 309.600 C 196.901 309.600,196.901 309.176,196.400 308.400 C 196.086 307.915,196.011 307.972,196.006 308.700 M196.643 365.033 C 196.205 366.173,196.388 366.568,196.987 365.776 C 197.310 365.349,197.580 364.865,197.587 364.700 C 197.611 364.141,196.887 364.396,196.643 365.033 M208.249 369.055 C 208.583 369.855,209.589 371.160,210.485 371.955 C 211.381 372.750,212.583 373.899,213.157 374.508 C 214.276 375.697,215.637 377.032,217.828 379.087 C 218.583 379.794,219.200 380.570,219.200 380.810 C 219.200 381.051,219.380 381.136,219.600 381.000 C 219.820 380.864,220.000 380.933,220.000 381.154 C 220.000 381.375,220.836 382.331,221.859 383.278 C 222.881 384.225,223.916 385.232,224.159 385.515 C 224.619 386.053,225.903 387.306,228.228 389.487 C 228.983 390.194,229.600 390.970,229.600 391.210 C 229.600 391.451,229.780 391.536,230.000 391.400 C 230.220 391.264,230.400 391.325,230.400 391.535 C 230.400 392.556,236.199 397.678,236.335 396.778 C 236.459 395.962,208.868 367.638,207.920 367.609 C 207.767 367.604,207.914 368.255,208.249 369.055 M207.309 383.924 C 206.973 384.137,207.922 385.305,210.309 387.618 L 213.800 391.000 210.700 387.791 C 207.563 384.544,207.059 383.818,208.266 384.281 C 208.713 384.452,208.836 384.383,208.642 384.068 C 208.306 383.525,207.991 383.491,207.309 383.924 M219.600 397.000 C 221.460 398.870,223.072 400.400,223.182 400.400 C 223.292 400.400,221.860 398.870,220.000 397.000 C 218.140 395.130,216.528 393.600,216.418 393.600 C 216.308 393.600,217.740 395.130,219.600 397.000 M148.123 394.974 C 147.748 395.401,147.794 395.651,148.339 396.145 C 148.981 396.726,149.039 396.684,149.122 395.586 C 149.220 394.311,148.885 394.106,148.123 394.974 M150.617 397.972 C 150.325 398.446,151.071 398.927,151.595 398.603 C 151.813 398.468,151.895 398.608,151.778 398.913 C 151.661 399.217,151.798 399.475,152.083 399.486 C 152.367 399.496,152.902 399.630,153.271 399.784 C 153.803 400.006,153.897 399.892,153.724 399.232 C 153.605 398.774,153.258 398.400,152.953 398.400 C 152.649 398.400,152.400 398.220,152.400 398.000 C 152.400 397.495,150.926 397.472,150.617 397.972 M224.545 402.600 C 224.219 403.449,224.664 404.400,225.387 404.400 C 226.027 404.400,226.171 403.711,225.757 402.633 C 225.451 401.834,224.845 401.817,224.545 402.600 " stroke="none" fill="#4685f2" fill-rule="evenodd"></path><path id="path3" d="M336.900 110.689 C 336.185 110.778,335.600 111.019,335.600 111.225 C 335.600 111.431,335.255 111.600,334.832 111.600 C 334.103 111.600,331.627 112.722,331.200 113.246 C 331.090 113.381,330.550 113.632,330.000 113.803 C 329.450 113.975,328.342 114.791,327.538 115.618 C 326.735 116.445,325.700 117.241,325.238 117.388 C 324.777 117.534,324.400 117.828,324.400 118.040 C 324.400 118.252,323.995 118.589,323.500 118.788 C 323.005 118.987,322.825 119.161,323.100 119.175 C 324.484 119.245,320.636 123.239,282.500 161.312 C 242.460 201.285,239.607 204.078,238.926 203.961 C 237.945 203.793,237.459 204.019,237.886 204.446 C 238.214 204.774,237.982 205.382,237.008 206.746 C 235.144 209.354,233.774 211.916,233.181 213.900 C 232.739 215.381,231.600 216.317,231.600 215.200 C 231.600 214.943,227.490 214.800,220.070 214.800 L 208.539 214.800 207.670 215.726 C 206.903 216.542,206.800 217.101,206.800 220.437 C 206.800 226.442,205.758 226.000,219.928 226.000 L 231.811 226.000 232.506 227.603 C 232.888 228.484,233.200 229.376,233.200 229.584 C 233.200 231.103,239.865 238.145,265.970 264.208 C 282.046 280.259,295.200 293.578,295.200 293.807 C 295.200 294.253,296.623 295.600,297.095 295.600 C 297.613 295.600,303.200 301.368,303.200 301.903 C 303.200 302.190,303.515 302.533,303.900 302.666 C 304.862 302.996,318.400 316.469,318.400 317.096 C 318.400 317.373,318.607 317.600,318.860 317.600 C 319.113 317.600,321.238 319.490,323.582 321.800 C 325.926 324.110,328.059 326.000,328.322 326.000 C 328.585 326.000,328.800 326.177,328.800 326.392 C 328.800 326.608,329.250 326.898,329.800 327.036 C 330.350 327.174,330.800 327.428,330.800 327.600 C 330.800 327.772,331.274 328.032,331.853 328.178 C 332.432 328.323,333.197 328.751,333.553 329.129 C 333.909 329.508,334.065 329.642,333.900 329.428 C 333.735 329.215,333.600 328.896,333.600 328.720 C 333.600 328.290,335.897 328.309,336.164 328.741 C 336.599 329.446,341.890 329.608,345.004 329.012 C 348.130 328.414,350.491 327.436,354.367 325.134 C 356.422 323.914,356.521 323.893,356.302 324.732 C 356.082 325.574,356.136 325.563,357.406 324.509 C 358.967 323.213,359.132 322.788,357.955 323.096 C 356.987 323.349,357.122 322.985,359.140 319.896 C 360.413 317.949,361.995 314.269,362.191 312.800 C 362.670 309.220,363.873 308.166,364.107 311.121 L 364.256 313.000 364.328 310.900 C 364.368 309.745,364.250 308.800,364.066 308.800 C 363.882 308.800,363.691 307.679,363.641 306.309 C 363.592 304.938,363.410 303.723,363.238 303.609 C 363.065 303.494,362.810 302.681,362.671 301.803 C 362.532 300.925,362.235 300.145,362.009 300.070 C 361.784 299.995,361.600 299.493,361.600 298.954 C 361.600 298.416,361.346 297.878,361.036 297.759 C 360.726 297.639,360.363 297.105,360.228 296.571 C 360.094 296.037,359.808 295.600,359.592 295.600 C 359.377 295.600,359.200 295.397,359.200 295.149 C 359.200 294.901,357.988 293.454,356.507 291.934 C 355.026 290.413,353.655 288.884,353.460 288.536 C 353.265 288.188,352.025 286.890,350.703 285.651 C 348.028 283.144,347.669 282.786,343.146 278.100 C 341.394 276.285,339.789 274.800,339.580 274.800 C 339.371 274.800,339.200 274.640,339.200 274.444 C 339.200 273.951,330.888 265.600,330.397 265.600 C 330.179 265.600,330.000 265.451,330.000 265.269 C 330.000 265.088,328.875 263.839,327.500 262.495 C 323.827 258.904,317.134 252.206,315.400 250.386 C 312.497 247.338,309.732 244.769,309.158 244.587 C 308.764 244.461,308.334 244.024,308.204 243.613 C 307.890 242.622,302.173 236.909,301.180 236.594 C 300.751 236.458,300.400 236.101,300.400 235.802 C 300.400 235.503,299.295 234.210,297.945 232.929 C 293.466 228.681,291.977 227.070,292.122 226.633 C 292.221 226.338,296.274 226.166,304.865 226.094 L 317.463 225.989 318.531 226.907 C 319.119 227.412,319.600 227.984,319.600 228.177 C 319.600 228.779,368.915 277.808,370.447 278.729 C 371.243 279.208,372.278 279.600,372.747 279.600 C 373.216 279.600,373.600 279.780,373.600 280.000 C 373.600 280.508,379.868 280.537,380.181 280.031 C 380.306 279.828,380.949 279.543,381.609 279.398 C 384.613 278.738,387.303 276.488,386.396 275.395 C 386.025 274.948,385.998 274.642,386.302 274.338 C 386.866 273.774,387.717 274.319,387.432 275.061 C 387.309 275.380,387.363 275.546,387.552 275.430 C 387.741 275.313,387.849 274.449,387.793 273.509 C 387.737 272.569,387.799 271.620,387.931 271.400 C 388.304 270.779,388.036 264.269,387.627 264.017 C 387.427 263.893,387.140 263.299,386.988 262.696 C 386.837 262.093,386.553 261.600,386.357 261.600 C 386.160 261.600,386.000 261.318,386.000 260.973 C 386.000 260.512,386.238 260.415,386.900 260.608 C 387.530 260.791,387.116 260.200,385.517 258.635 C 384.009 257.158,382.904 256.400,382.260 256.400 C 381.284 256.400,380.590 255.463,381.034 254.745 C 381.565 253.886,379.128 252.216,377.071 252.030 C 376.891 252.013,376.800 251.561,376.870 251.025 C 377.006 249.990,374.978 247.443,374.335 247.840 C 373.582 248.306,372.324 247.532,372.534 246.731 C 372.792 245.743,371.690 244.402,370.611 244.394 C 369.408 244.385,368.702 243.801,368.868 242.952 C 369.062 241.960,368.039 240.800,366.970 240.800 C 365.764 240.800,364.000 239.038,364.000 237.833 C 364.000 236.867,362.773 235.760,362.265 236.268 C 361.717 236.817,359.958 235.162,360.218 234.343 C 360.549 233.300,359.060 231.848,357.631 231.820 C 356.794 231.804,356.600 231.606,356.600 230.764 C 356.600 229.424,355.738 228.400,354.609 228.400 C 353.767 228.400,352.486 227.443,351.249 225.887 C 350.731 225.237,350.769 225.231,351.849 225.795 C 353.677 226.748,366.313 226.670,367.029 225.700 C 367.494 225.070,368.484 225.934,376.884 234.300 C 385.743 243.123,386.299 243.600,387.724 243.600 C 388.689 243.600,389.307 243.814,389.455 244.200 C 389.841 245.205,390.621 244.884,392.349 243.009 C 393.906 241.319,394.440 240.481,393.645 240.972 C 393.244 241.220,392.324 240.265,392.462 239.742 C 392.849 238.275,391.594 236.517,386.477 231.359 C 381.843 226.687,381.135 225.816,381.875 225.694 C 382.381 225.611,383.099 225.899,383.575 226.375 C 384.893 227.693,389.985 227.579,391.364 226.200 C 391.982 225.582,392.818 225.200,393.553 225.200 C 395.543 225.200,397.600 222.931,397.600 220.738 C 397.600 216.692,395.121 215.642,385.500 215.613 C 383.135 215.606,381.200 215.546,381.200 215.479 C 381.200 214.785,391.473 205.178,392.053 205.330 C 392.448 205.433,392.988 205.256,393.253 204.936 C 393.638 204.472,393.621 204.380,393.168 204.477 C 392.743 204.569,392.623 204.213,392.692 203.065 C 392.839 200.612,390.388 197.188,388.721 197.517 C 388.347 197.590,387.672 197.453,387.221 197.211 C 386.559 196.857,386.400 196.891,386.400 197.386 C 386.400 197.724,386.235 198.000,386.033 198.000 C 385.831 198.000,385.349 198.121,384.963 198.269 C 384.418 198.479,384.320 198.386,384.523 197.856 C 384.667 197.480,380.822 201.139,375.978 205.986 L 367.170 214.800 360.288 214.800 L 353.406 214.800 363.318 204.882 C 368.770 199.427,373.089 194.808,372.915 194.618 C 372.742 194.427,372.792 194.381,373.027 194.514 C 373.261 194.647,376.229 191.976,379.622 188.578 C 385.150 183.041,385.874 182.149,384.659 182.366 C 384.257 182.438,385.863 179.739,386.882 178.630 C 387.272 178.206,387.700 177.216,387.834 176.430 C 388.355 173.382,388.666 172.600,389.335 172.656 C 389.746 172.690,390.000 172.414,390.000 171.932 C 390.000 171.493,389.818 171.265,389.582 171.411 C 389.007 171.766,388.000 170.858,388.000 169.983 C 388.000 169.200,386.908 166.972,386.082 166.072 C 385.457 165.390,385.687 164.550,386.450 164.729 C 387.177 164.899,386.705 164.509,383.971 162.686 C 382.745 161.869,381.270 161.200,380.694 161.200 C 380.118 161.200,379.536 161.020,379.400 160.800 C 379.264 160.580,378.173 160.400,376.976 160.400 C 375.779 160.400,374.800 160.580,374.800 160.800 C 374.800 161.020,374.385 161.200,373.878 161.200 C 373.350 161.200,372.378 161.798,371.600 162.600 C 370.854 163.370,370.091 164.000,369.905 164.000 C 369.539 164.000,368.881 164.488,367.344 165.900 C 366.805 166.395,366.191 166.800,365.980 166.800 C 365.770 166.800,355.870 176.520,343.982 188.400 C 332.093 200.280,322.282 210.000,322.180 210.000 C 321.740 210.000,319.600 212.176,319.600 212.623 C 319.600 212.893,319.330 213.218,319.000 213.345 C 318.670 213.471,318.400 213.773,318.400 214.016 C 318.400 215.519,317.647 215.600,303.729 215.600 L 290.202 215.600 324.701 181.099 C 343.675 162.124,359.200 146.445,359.200 146.257 C 359.200 146.069,359.695 145.259,360.300 144.458 C 361.946 142.277,362.800 140.589,362.800 139.518 C 362.800 138.991,362.958 138.389,363.151 138.180 C 363.798 137.481,363.953 134.067,363.348 133.836 C 362.583 133.542,362.630 130.951,363.406 130.653 C 364.022 130.416,363.855 127.271,363.201 126.800 C 363.049 126.690,362.812 125.895,362.676 125.032 C 362.540 124.170,362.256 123.358,362.046 123.228 C 361.836 123.098,361.540 122.499,361.388 121.896 C 361.237 121.293,360.953 120.800,360.757 120.800 C 360.560 120.800,360.400 120.570,360.400 120.288 C 360.400 119.638,355.543 114.800,354.889 114.800 C 354.620 114.800,354.400 114.632,354.400 114.427 C 354.400 114.222,353.995 113.928,353.500 113.773 C 353.005 113.619,352.510 113.381,352.400 113.246 C 352.136 112.922,349.825 111.838,347.692 111.040 C 346.059 110.428,340.467 110.247,336.900 110.689 M381.825 185.112 C 381.201 185.710,380.834 185.947,381.008 185.638 C 381.478 184.801,382.574 183.713,382.779 183.879 C 382.877 183.959,382.448 184.514,381.825 185.112 M390.846 207.419 C 390.321 207.973,389.961 208.489,390.046 208.567 C 390.131 208.645,390.706 208.189,391.325 207.554 C 391.944 206.919,392.304 206.403,392.125 206.407 C 391.946 206.411,391.371 206.866,390.846 207.419 M352.000 215.000 C 351.726 215.330,351.209 215.594,350.851 215.586 C 350.403 215.576,350.512 215.393,351.200 215.000 C 352.484 214.266,352.609 214.266,352.000 215.000 " stroke="none" fill="#fb0404" fill-rule="evenodd"></path><path id="path4" d="M198.457 23.841 C 197.570 24.784,197.044 25.799,196.905 26.834 C 196.789 27.695,196.538 28.400,196.347 28.400 C 196.156 28.400,196.000 31.010,196.000 34.200 C 196.000 37.390,195.882 40.000,195.737 40.000 C 195.592 40.000,193.449 37.930,190.975 35.400 C 188.500 32.870,186.292 30.800,186.067 30.800 C 185.841 30.800,185.363 30.506,185.004 30.147 C 183.036 28.179,176.000 30.206,176.000 32.740 C 176.000 32.993,175.820 33.200,175.600 33.200 C 175.378 33.200,175.200 34.267,175.200 35.600 C 175.200 36.933,175.378 38.000,175.600 38.000 C 175.820 38.000,176.000 38.258,176.000 38.573 C 176.000 38.888,180.500 43.642,186.000 49.137 L 196.000 59.127 196.000 63.257 L 196.000 67.388 178.075 49.594 C 158.864 30.523,159.419 31.048,157.969 30.595 C 157.436 30.428,156.877 30.100,156.726 29.865 C 156.222 29.078,146.795 29.308,146.342 30.119 C 146.132 30.493,145.699 30.800,145.380 30.800 C 145.061 30.800,144.800 30.968,144.800 31.173 C 144.800 31.378,144.422 31.666,143.961 31.813 C 142.534 32.265,139.835 35.523,139.378 37.345 C 139.232 37.925,138.963 38.400,138.778 38.400 C 138.318 38.400,138.366 46.732,138.828 47.017 C 139.033 47.144,139.200 47.667,139.200 48.181 C 139.200 48.694,139.470 49.218,139.800 49.345 C 140.130 49.471,140.400 49.819,140.400 50.118 C 140.400 50.416,140.850 51.083,141.400 51.600 C 141.950 52.117,142.400 52.696,142.400 52.886 C 142.400 53.474,192.590 103.449,194.348 104.613 L 196.000 105.706 196.000 117.253 C 196.000 126.243,195.889 128.800,195.498 128.800 C 194.930 128.800,190.002 123.936,189.996 123.369 C 189.994 123.166,189.523 122.640,188.949 122.200 C 186.850 120.588,182.400 116.256,182.400 115.823 C 182.400 115.337,180.985 114.000,180.470 114.000 C 179.978 114.000,166.000 99.745,166.000 99.242 C 166.000 98.999,165.770 98.800,165.490 98.800 C 164.865 98.800,159.404 93.273,159.067 92.300 C 158.934 91.915,158.590 91.600,158.303 91.600 C 157.768 91.600,152.000 86.013,152.000 85.495 C 152.000 85.021,150.652 83.600,150.202 83.600 C 149.641 83.600,143.374 77.189,143.067 76.300 C 142.934 75.915,142.588 75.600,142.299 75.600 C 142.009 75.600,138.640 72.450,134.811 68.600 C 130.983 64.750,127.614 61.600,127.325 61.600 C 127.036 61.600,126.800 61.433,126.800 61.229 C 126.800 60.661,124.416 59.600,123.139 59.600 C 121.223 59.600,121.829 60.555,125.100 62.691 C 127.568 64.303,135.205 71.698,162.568 98.969 C 181.470 117.808,197.130 133.157,197.368 133.078 C 197.823 132.926,198.230 106.650,197.804 104.900 C 197.683 104.405,197.282 104.000,196.911 104.000 C 196.158 104.000,144.713 52.833,142.600 49.982 C 137.938 43.692,139.999 35.530,147.095 32.173 C 149.471 31.048,153.875 30.711,155.470 31.531 C 155.871 31.738,156.740 32.145,157.400 32.435 C 158.060 32.726,167.269 41.588,177.864 52.128 C 188.926 63.133,197.313 71.177,197.564 71.022 C 197.848 70.847,198.000 68.640,198.000 64.701 L 198.000 58.649 187.600 48.200 C 177.356 37.908,177.200 37.726,177.200 36.094 C 177.200 32.982,178.804 31.200,181.606 31.200 C 183.560 31.200,184.208 31.696,190.856 38.294 C 194.296 41.708,197.291 44.391,197.512 44.255 C 197.742 44.112,198.036 40.480,198.203 35.704 C 198.559 25.581,199.164 24.000,202.683 24.000 C 206.273 24.000,207.107 26.437,207.166 37.100 C 207.208 44.699,206.855 44.671,213.927 37.631 C 220.224 31.361,221.261 30.644,223.217 31.205 C 225.851 31.960,227.279 34.438,226.611 37.097 C 226.435 37.801,222.806 41.746,216.567 48.017 C 206.501 58.135,205.447 59.553,207.577 60.110 C 208.512 60.354,208.800 60.117,208.800 59.100 C 208.800 58.631,212.570 54.577,218.500 48.667 C 230.881 36.328,231.320 35.320,226.438 30.438 C 225.361 29.361,219.450 29.171,219.055 30.200 C 218.929 30.530,218.613 30.800,218.354 30.800 C 218.095 30.800,216.064 32.619,213.841 34.843 L 209.800 38.885 209.699 33.543 C 209.644 30.604,209.400 27.750,209.157 27.200 C 207.940 24.443,207.432 23.600,206.986 23.600 C 206.718 23.600,206.274 23.330,206.000 23.000 C 204.890 21.663,199.994 22.209,198.457 23.841 M247.600 29.957 C 247.600 30.153,247.150 30.426,246.600 30.564 C 246.050 30.702,245.600 30.992,245.600 31.208 C 245.600 31.423,245.346 31.600,245.036 31.600 C 244.726 31.600,243.421 32.703,242.136 34.051 C 239.385 36.937,237.365 38.965,234.151 42.071 C 232.858 43.321,228.168 48.001,223.729 52.471 C 219.290 56.942,213.665 62.538,211.229 64.906 C 207.188 68.835,205.630 71.200,207.083 71.200 C 207.239 71.200,215.924 62.677,226.383 52.260 C 242.822 35.887,245.717 33.173,247.736 32.231 C 257.143 27.847,267.404 37.940,263.219 47.463 C 262.327 49.492,211.017 101.426,208.100 103.252 C 206.267 104.399,206.364 106.800,208.243 106.800 C 208.340 106.800,208.591 106.350,208.800 105.800 C 209.009 105.250,209.411 104.800,209.694 104.800 C 210.411 104.800,263.686 51.331,264.741 49.553 C 265.214 48.757,265.600 47.642,265.600 47.076 C 265.600 46.510,265.780 45.936,266.000 45.800 C 266.489 45.498,266.539 40.000,266.053 40.000 C 265.862 40.000,265.605 39.249,265.482 38.332 C 265.359 37.415,264.975 36.506,264.629 36.312 C 264.283 36.119,264.000 35.768,264.000 35.533 C 264.000 34.631,260.457 31.626,258.300 30.698 C 257.695 30.438,257.200 30.084,257.200 29.912 C 257.200 29.741,255.040 29.600,252.400 29.600 C 249.760 29.600,247.600 29.760,247.600 29.957 M284.213 57.979 C 284.070 58.210,283.603 58.400,283.176 58.400 C 282.749 58.400,282.400 58.566,282.400 58.768 C 282.400 58.971,281.860 59.255,281.200 59.400 C 280.540 59.545,280.000 59.815,280.000 60.000 C 280.000 60.185,279.472 60.452,278.828 60.594 C 278.183 60.736,277.441 61.110,277.179 61.426 C 276.917 61.742,276.534 62.000,276.328 62.000 C 276.123 62.000,260.649 77.300,241.941 96.000 C 223.234 114.700,207.674 130.000,207.364 130.000 C 206.986 130.000,206.800 130.462,206.800 131.400 C 206.800 132.245,206.996 132.800,207.295 132.800 C 207.567 132.800,223.182 117.427,241.995 98.639 C 276.945 63.734,278.118 62.652,283.000 60.818 C 296.554 55.727,311.743 67.125,310.707 81.609 C 310.492 84.612,311.096 85.761,312.272 84.585 C 313.015 83.842,312.954 76.325,312.188 74.200 C 311.871 73.320,311.609 72.285,311.606 71.900 C 311.603 71.515,311.420 71.200,311.200 71.200 C 310.980 71.200,310.800 70.924,310.800 70.587 C 310.800 70.251,310.546 69.878,310.236 69.759 C 309.926 69.639,309.555 69.060,309.412 68.471 C 309.127 67.300,303.733 61.600,302.910 61.600 C 302.630 61.600,302.400 61.423,302.400 61.208 C 302.400 60.992,301.950 60.702,301.400 60.564 C 300.850 60.426,300.400 60.161,300.400 59.975 C 300.400 59.789,299.770 59.518,299.000 59.374 C 298.230 59.229,297.600 58.971,297.600 58.801 C 297.600 57.937,284.728 57.146,284.213 57.979 M91.761 82.558 C 91.248 83.893,91.780 86.200,92.600 86.200 C 93.208 86.200,93.430 85.892,93.524 84.918 C 93.722 82.873,92.346 81.032,91.761 82.558 M259.093 140.759 C 213.769 186.016,213.993 185.804,209.691 187.614 C 206.963 188.762,205.830 190.342,207.325 190.916 C 207.856 191.120,211.959 189.418,212.400 188.811 C 212.510 188.659,213.431 188.125,214.447 187.623 C 216.983 186.371,303.748 99.663,303.540 98.589 C 303.463 98.191,303.172 97.790,302.893 97.697 C 302.614 97.605,282.904 116.982,259.093 140.759 M58.406 109.944 C 58.437 111.224,62.308 111.677,62.717 110.448 C 62.791 110.226,63.155 110.138,63.526 110.253 C 64.015 110.403,63.986 110.325,63.421 109.966 C 62.871 109.617,62.599 109.602,62.495 109.914 C 62.415 110.156,62.135 110.285,61.874 110.200 C 60.902 109.882,58.400 109.697,58.406 109.944 M52.400 112.461 C 52.400 112.673,52.220 112.736,52.000 112.600 C 51.780 112.464,51.600 112.633,51.600 112.976 C 51.600 113.736,52.353 113.762,53.309 113.036 C 53.981 112.527,53.975 112.487,53.209 112.287 C 52.764 112.170,52.400 112.249,52.400 112.461 M281.454 160.500 C 258.738 183.215,240.034 202.115,239.889 202.500 C 239.744 202.885,239.339 203.200,238.989 203.200 C 238.639 203.200,238.464 203.380,238.600 203.600 C 238.736 203.820,239.052 204.000,239.302 204.000 C 239.641 204.000,299.816 144.265,321.060 122.838 C 323.441 120.438,324.161 119.200,323.178 119.200 C 322.945 119.200,304.170 137.785,281.454 160.500 M40.039 132.028 C 39.975 134.225,40.076 134.841,40.478 134.707 C 41.137 134.488,41.214 129.538,40.561 129.320 C 40.275 129.225,40.093 130.166,40.039 132.028 M363.270 130.748 C 362.395 131.303,362.828 133.800,363.800 133.800 C 364.464 133.800,364.600 133.533,364.600 132.233 C 364.600 130.619,364.193 130.164,363.270 130.748 M40.800 138.429 C 40.800 139.165,40.867 139.190,41.400 138.657 C 41.730 138.327,42.000 137.954,42.000 137.829 C 42.000 137.703,41.730 137.600,41.400 137.600 C 41.060 137.600,40.800 137.959,40.800 138.429 M41.467 139.867 C 41.084 140.249,41.138 140.800,41.557 140.800 C 41.754 140.800,42.018 140.530,42.145 140.200 C 42.379 139.590,41.953 139.381,41.467 139.867 M52.955 154.172 C 52.429 154.735,52.698 155.600,53.400 155.600 C 53.693 155.600,54.017 155.825,54.120 156.100 C 54.245 156.435,54.405 156.361,54.605 155.878 C 54.990 154.943,53.588 153.494,52.955 154.172 M60.918 162.212 C 60.650 162.499,60.617 162.898,60.834 163.241 C 61.028 163.548,61.191 163.629,61.194 163.420 C 61.197 163.211,61.416 163.256,61.680 163.520 C 62.305 164.145,62.800 164.131,62.800 163.489 C 62.800 162.604,61.424 161.670,60.918 162.212 M385.853 164.681 C 385.472 165.062,385.546 165.484,386.100 166.090 C 386.926 166.993,388.000 169.214,388.000 170.018 C 388.000 170.797,389.301 171.766,389.747 171.319 C 390.156 170.911,390.037 169.200,389.600 169.200 C 389.380 169.200,389.200 168.759,389.200 168.220 C 389.200 167.681,388.961 167.096,388.670 166.920 C 388.378 166.744,388.028 166.297,387.892 165.926 C 387.608 165.150,386.227 164.307,385.853 164.681 M68.253 169.807 C 68.127 170.133,68.199 170.400,68.413 170.400 C 68.626 170.400,68.800 170.670,68.800 171.000 C 68.800 171.330,69.070 171.600,69.400 171.600 C 70.262 171.600,70.141 170.103,69.240 169.621 C 68.665 169.313,68.425 169.359,68.253 169.807 M15.039 170.694 C 14.725 171.008,14.731 174.154,15.047 174.977 C 15.525 176.225,16.400 174.813,16.400 172.794 C 16.400 171.017,15.738 169.995,15.039 170.694 M388.846 172.944 C 388.602 173.238,388.221 174.434,388.000 175.600 C 387.651 177.442,387.218 178.409,386.391 179.200 C 385.109 180.425,384.502 182.678,385.727 181.660 C 386.028 181.411,386.372 181.305,386.491 181.425 C 386.786 181.719,388.273 179.259,388.605 177.929 C 388.752 177.340,389.126 176.761,389.436 176.641 C 389.805 176.500,390.000 175.806,390.000 174.636 C 390.000 172.719,389.564 172.080,388.846 172.944 M75.600 177.229 C 75.600 177.782,76.618 178.800,77.171 178.800 C 77.778 178.800,77.703 178.046,77.029 177.371 C 76.354 176.697,75.600 176.622,75.600 177.229 M185.200 182.613 C 185.200 182.936,185.470 183.200,185.800 183.200 C 186.130 183.200,186.400 183.039,186.400 182.843 C 186.400 182.646,186.130 182.382,185.800 182.255 C 185.435 182.115,185.200 182.255,185.200 182.613 M83.736 185.255 C 83.875 185.775,83.992 186.335,83.995 186.500 C 83.998 186.665,84.270 186.800,84.600 186.800 C 85.510 186.800,85.317 185.291,84.341 184.769 C 83.556 184.348,83.505 184.390,83.736 185.255 M91.068 191.866 C 90.668 192.265,90.745 193.600,91.167 193.600 C 91.369 193.600,91.819 193.709,92.167 193.843 C 93.051 194.182,92.982 193.089,92.068 192.261 C 91.665 191.897,91.215 191.719,91.068 191.866 M197.770 200.000 C 197.770 204.730,197.828 206.665,197.898 204.300 C 197.969 201.935,197.969 198.065,197.898 195.700 C 197.828 193.335,197.770 195.270,197.770 200.000 M13.775 195.641 C 13.683 195.789,13.861 196.118,14.169 196.374 C 14.544 196.685,14.813 196.703,14.983 196.428 C 15.154 196.151,15.479 196.168,15.977 196.478 C 16.564 196.845,16.850 196.808,17.361 196.296 C 17.716 195.941,17.855 195.558,17.671 195.444 C 17.200 195.153,13.976 195.316,13.775 195.641 M386.300 196.432 C 385.915 196.656,385.600 196.706,385.600 196.543 C 385.600 196.380,385.346 196.595,385.035 197.019 C 384.725 197.444,384.545 197.911,384.636 198.058 C 384.926 198.528,386.400 197.928,386.400 197.339 C 386.400 196.891,386.572 196.864,387.221 197.211 C 387.672 197.453,388.347 197.590,388.721 197.517 C 390.420 197.182,392.986 200.804,392.580 202.965 C 392.442 203.704,392.488 204.407,392.683 204.528 C 394.683 205.764,394.462 199.542,392.440 197.696 C 390.684 196.091,387.877 195.514,386.300 196.432 M18.231 196.750 C 18.112 196.942,18.458 197.100,19.000 197.100 C 19.542 197.100,19.888 196.942,19.769 196.750 C 19.650 196.558,19.304 196.400,19.000 196.400 C 18.696 196.400,18.350 196.558,18.231 196.750 M98.284 199.600 C 98.004 200.670,99.466 202.014,99.843 201.032 C 100.005 200.610,99.797 200.071,99.292 199.600 C 98.498 198.860,98.478 198.860,98.284 199.600 M9.600 201.486 C 9.600 202.486,9.651 202.521,10.247 201.924 C 10.603 201.568,10.773 201.079,10.624 200.838 C 10.133 200.044,9.600 200.381,9.600 201.486 M237.400 204.800 C 237.536 205.020,237.400 205.200,237.098 205.200 C 236.461 205.200,234.631 207.077,234.271 208.100 C 234.136 208.485,233.859 208.800,233.656 208.800 C 233.453 208.800,233.163 209.293,233.012 209.896 C 232.860 210.499,232.583 211.087,232.394 211.204 C 231.699 211.633,231.438 215.600,232.105 215.600 C 232.440 215.600,232.833 215.105,232.980 214.500 C 233.536 212.208,237.154 205.687,238.102 205.266 C 238.502 205.089,238.065 204.400,237.553 204.400 C 237.333 204.400,237.264 204.580,237.400 204.800 M386.263 210.300 L 381.230 215.400 386.915 215.650 C 390.042 215.787,393.113 215.922,393.740 215.950 C 398.950 216.179,398.647 224.471,393.397 225.323 C 390.531 225.788,389.885 227.200,392.539 227.200 C 396.781 227.200,402.019 220.742,399.193 218.996 C 398.970 218.858,398.887 218.583,399.009 218.386 C 399.276 217.954,397.212 215.545,396.795 215.803 C 396.635 215.902,396.092 215.627,395.590 215.192 C 394.783 214.491,394.085 214.400,389.539 214.400 C 386.712 214.400,384.400 214.279,384.400 214.132 C 384.400 213.984,386.280 212.024,388.578 209.776 C 390.875 207.528,392.645 205.579,392.511 205.444 C 391.887 204.820,390.959 205.541,386.263 210.300 M106.251 207.413 C 106.129 207.730,106.433 208.459,106.927 209.033 L 107.824 210.076 107.894 209.151 C 107.981 207.992,106.592 206.523,106.251 207.413 M207.300 214.267 C 207.025 214.377,206.800 214.834,206.800 215.282 C 206.800 216.017,206.882 216.043,207.627 215.549 C 208.874 214.720,208.624 213.737,207.300 214.267 M9.600 215.000 C 9.600 215.503,10.444 215.600,14.800 215.600 C 19.156 215.600,20.000 215.503,20.000 215.000 C 20.000 214.497,19.156 214.400,14.800 214.400 C 10.444 214.400,9.600 214.497,9.600 215.000 M20.577 215.238 C 20.454 215.437,20.813 215.600,21.376 215.600 C 22.602 215.600,22.701 215.372,21.600 215.084 C 21.161 214.969,20.700 215.038,20.577 215.238 M6.278 215.856 C 5.958 216.175,6.319 216.800,6.824 216.800 C 7.031 216.800,7.200 216.530,7.200 216.200 C 7.200 215.581,6.728 215.405,6.278 215.856 M197.186 216.374 C 197.414 216.799,197.600 217.789,197.600 218.574 C 197.600 219.533,197.784 220.000,198.163 220.000 C 198.485 220.000,198.665 219.701,198.585 219.300 C 198.507 218.915,198.336 217.925,198.204 217.100 C 198.051 216.145,197.747 215.600,197.368 215.600 C 196.903 215.600,196.863 215.770,197.186 216.374 M4.574 218.959 C 4.442 219.487,4.414 220.342,4.512 220.859 C 4.651 221.589,4.703 221.509,4.746 220.500 C 4.782 219.635,5.001 219.200,5.400 219.200 C 5.730 219.200,6.000 218.930,6.000 218.600 C 6.000 217.623,4.836 217.917,4.574 218.959 M351.260 225.901 C 353.021 228.116,355.011 229.172,354.729 227.743 C 354.596 227.065,354.338 226.881,352.060 225.836 C 350.807 225.261,350.755 225.266,351.260 225.901 M367.056 225.478 C 366.915 225.618,366.800 225.988,366.800 226.298 C 366.800 227.158,384.284 244.400,385.156 244.400 C 385.566 244.400,386.134 244.679,386.417 245.020 C 387.185 245.946,389.400 245.634,389.400 244.600 C 389.400 243.957,389.067 243.761,387.700 243.600 C 386.106 243.412,385.445 242.850,377.100 234.570 C 367.851 225.394,367.477 225.056,367.056 225.478 M381.200 225.844 C 381.200 225.978,383.623 228.514,386.584 231.479 C 391.896 236.796,392.515 237.636,392.571 239.595 C 392.589 240.209,392.868 240.641,393.300 240.724 C 394.413 240.938,394.312 236.995,393.189 236.394 C 392.743 236.155,392.474 235.803,392.592 235.612 C 392.711 235.421,392.559 235.025,392.256 234.732 C 383.132 225.927,381.200 224.374,381.200 225.844 M111.256 227.550 C 110.398 228.284,110.075 228.799,110.363 228.977 C 110.615 229.133,111.424 228.626,112.199 227.828 C 113.855 226.123,113.164 225.920,111.256 227.550 M356.667 230.267 C 356.147 230.786,356.411 231.550,357.196 231.799 C 358.498 232.212,358.938 231.614,357.959 230.764 C 356.951 229.890,357.018 229.916,356.667 230.267 M105.700 233.051 C 103.386 235.463,102.767 236.400,103.487 236.400 C 104.037 236.400,105.581 234.293,105.330 233.886 C 105.182 233.647,105.274 233.599,105.552 233.770 C 106.195 234.168,109.104 231.343,108.584 230.826 C 108.340 230.583,107.292 231.391,105.700 233.051 M360.400 234.786 C 360.400 235.633,361.767 236.591,362.408 236.195 C 362.969 235.849,362.893 235.350,362.171 234.629 C 361.304 233.761,360.400 233.841,360.400 234.786 M364.000 238.219 C 364.000 238.961,365.894 240.800,366.658 240.800 C 367.544 240.800,367.277 239.824,366.078 238.675 C 364.821 237.471,364.000 237.291,364.000 238.219 M99.399 239.106 C 97.672 240.680,95.518 243.252,95.741 243.474 C 96.155 243.889,97.654 242.717,97.436 242.149 C 97.298 241.789,97.378 241.663,97.642 241.826 C 98.146 242.137,101.666 238.830,101.359 238.334 C 101.031 237.802,100.679 237.941,99.399 239.106 M9.600 240.429 C 9.600 241.554,9.654 241.603,10.239 241.018 C 10.590 240.667,10.776 240.114,10.651 239.790 C 10.255 238.757,9.600 239.155,9.600 240.429 M10.400 242.976 C 10.400 243.823,11.077 244.097,11.358 243.365 C 11.700 242.473,11.673 242.400,11.000 242.400 C 10.670 242.400,10.400 242.659,10.400 242.976 M368.800 243.157 C 368.800 243.840,369.519 244.400,370.397 244.400 C 370.924 244.400,370.603 243.173,369.972 242.774 C 369.104 242.225,368.800 242.324,368.800 243.157 M92.800 246.233 C 92.800 246.940,93.661 246.817,93.908 246.075 C 93.995 245.814,93.782 245.600,93.433 245.600 C 93.085 245.600,92.800 245.885,92.800 246.233 M372.529 246.640 C 372.280 247.288,372.984 247.983,373.900 247.994 C 374.570 248.002,374.533 247.276,373.829 246.571 C 373.095 245.837,372.832 245.851,372.529 246.640 M90.869 248.039 C 90.190 249.125,90.688 249.641,91.433 248.623 C 91.745 248.196,92.000 247.701,92.000 247.524 C 92.000 246.920,91.395 247.196,90.869 248.039 M89.364 249.350 C 89.025 250.233,89.476 250.684,90.087 250.073 C 90.447 249.713,90.449 249.489,90.093 249.133 C 89.737 248.777,89.564 248.829,89.364 249.350 M88.277 250.143 C 88.144 250.490,88.219 250.888,88.444 251.027 C 89.067 251.412,89.319 250.942,88.896 250.186 C 88.559 249.584,88.493 249.580,88.277 250.143 M376.800 251.153 C 376.800 251.639,377.155 251.975,377.800 252.098 C 378.876 252.304,379.136 251.696,378.320 250.880 C 377.599 250.159,376.800 250.302,376.800 251.153 M85.470 253.361 C 85.352 253.669,85.361 254.028,85.491 254.157 C 85.773 254.440,86.800 253.650,86.800 253.151 C 86.800 252.579,85.704 252.752,85.470 253.361 M83.300 255.065 C 83.025 255.176,82.800 255.631,82.800 256.076 C 82.800 256.619,82.609 256.812,82.220 256.663 C 81.867 256.527,81.542 256.754,81.386 257.245 C 81.245 257.687,80.687 258.251,80.146 258.498 C 79.285 258.890,79.244 258.993,79.824 259.317 C 80.344 259.608,80.951 259.213,82.643 257.479 C 85.176 254.884,85.353 254.237,83.300 255.065 M381.200 255.600 C 381.200 256.190,381.467 256.400,382.214 256.400 C 383.104 256.400,383.176 256.302,382.800 255.600 C 382.565 255.160,382.108 254.800,381.786 254.800 C 381.464 254.800,381.200 255.160,381.200 255.600 M386.000 260.973 C 386.000 261.318,386.160 261.600,386.357 261.600 C 386.553 261.600,386.837 262.093,386.988 262.696 C 387.140 263.299,387.444 263.904,387.666 264.041 C 387.887 264.177,388.097 265.709,388.134 267.445 C 388.194 270.311,388.273 270.600,389.000 270.600 C 389.915 270.600,390.400 266.183,389.658 264.614 C 389.446 264.166,389.165 263.468,389.034 263.062 C 388.903 262.656,388.422 262.226,387.964 262.107 C 387.348 261.946,387.268 261.805,387.655 261.566 C 388.270 261.186,388.119 260.997,386.900 260.623 C 386.232 260.417,386.000 260.508,386.000 260.973 M76.242 262.267 C 75.525 262.985,75.307 263.467,75.578 263.738 C 76.130 264.290,77.562 262.958,77.487 261.963 C 77.416 261.020,77.513 260.996,76.242 262.267 M74.400 264.633 C 74.400 264.982,74.614 265.195,74.875 265.108 C 75.617 264.861,75.740 264.000,75.033 264.000 C 74.685 264.000,74.400 264.285,74.400 264.633 M73.050 265.408 C 72.602 265.739,72.398 266.219,72.545 266.601 C 72.760 267.162,72.899 267.139,73.673 266.418 C 74.738 265.426,74.202 264.557,73.050 265.408 M15.039 265.494 C 14.206 266.327,14.934 271.677,15.833 271.332 C 16.587 271.043,16.561 270.000,15.800 270.000 C 15.356 270.000,15.200 269.533,15.200 268.200 C 15.200 266.867,15.356 266.400,15.800 266.400 C 16.130 266.400,16.400 266.239,16.400 266.043 C 16.400 265.593,15.360 265.174,15.039 265.494 M68.636 269.960 C 68.156 270.490,68.084 270.805,68.399 270.999 C 68.930 271.327,70.480 270.053,70.167 269.547 C 69.835 269.010,69.386 269.131,68.636 269.960 M66.314 271.975 C 65.842 272.527,65.787 272.806,66.125 272.944 C 66.386 273.050,66.285 273.151,65.900 273.168 C 65.218 273.199,64.865 274.400,65.538 274.400 C 66.145 274.400,67.285 272.862,67.009 272.415 C 66.862 272.176,66.889 272.006,67.070 272.037 C 67.818 272.167,68.400 271.976,68.400 271.600 C 68.400 270.913,67.010 271.163,66.314 271.975 M387.822 271.564 C 387.526 272.043,387.981 273.200,388.466 273.200 C 388.676 273.200,388.744 273.032,388.617 272.828 C 388.491 272.623,388.570 272.342,388.793 272.204 C 389.017 272.066,389.200 271.783,389.200 271.576 C 389.200 271.094,388.119 271.084,387.822 271.564 M386.422 274.386 C 385.939 274.685,385.935 274.840,386.396 275.395 C 386.900 276.002,386.967 276.001,387.311 275.387 C 387.775 274.559,387.196 273.908,386.422 274.386 M61.500 277.076 C 61.115 277.176,60.800 277.600,60.800 278.017 C 60.800 278.555,60.597 278.712,60.100 278.557 C 59.482 278.365,59.486 278.394,60.133 278.808 C 60.858 279.271,62.800 278.049,62.800 277.130 C 62.800 276.784,62.643 276.777,61.500 277.076 M59.600 279.587 C 59.600 279.801,59.346 279.878,59.036 279.759 C 58.697 279.628,58.367 279.873,58.209 280.371 C 58.064 280.827,57.778 281.200,57.573 281.200 C 57.368 281.200,57.200 281.470,57.200 281.800 C 57.200 282.130,57.352 282.400,57.538 282.400 C 58.145 282.400,59.285 280.862,59.009 280.415 C 58.862 280.176,58.889 280.006,59.070 280.037 C 59.818 280.167,60.400 279.976,60.400 279.600 C 60.400 279.380,60.220 279.200,60.000 279.200 C 59.780 279.200,59.600 279.374,59.600 279.587 M56.006 282.700 C 56.003 283.195,56.180 283.600,56.400 283.600 C 56.901 283.600,56.901 283.176,56.400 282.400 C 56.086 281.915,56.011 281.972,56.006 282.700 M50.184 288.827 C 50.039 289.061,50.016 289.349,50.133 289.467 C 50.420 289.753,51.200 289.248,51.200 288.776 C 51.200 288.265,50.509 288.299,50.184 288.827 M42.400 297.167 C 42.400 297.369,42.291 297.819,42.157 298.167 C 41.994 298.593,42.139 298.800,42.600 298.800 C 43.043 298.800,43.205 298.589,43.057 298.205 C 42.932 297.877,43.025 297.652,43.264 297.705 C 43.504 297.757,43.782 297.575,43.883 297.300 C 43.993 297.001,43.731 296.800,43.233 296.800 C 42.775 296.800,42.400 296.965,42.400 297.167 M40.800 301.787 C 40.800 302.144,41.035 302.285,41.398 302.146 C 41.726 302.019,41.896 301.755,41.774 301.558 C 41.425 300.993,40.800 301.140,40.800 301.787 M40.273 303.860 C 39.847 304.286,39.952 305.600,40.413 305.600 C 41.004 305.600,41.376 304.416,40.926 303.966 C 40.718 303.758,40.424 303.710,40.273 303.860 M362.538 311.100 C 362.374 311.925,362.281 312.811,362.330 313.070 C 362.380 313.328,362.236 313.654,362.011 313.793 C 361.785 313.933,361.600 314.371,361.600 314.767 C 361.600 315.497,359.521 319.700,358.615 320.800 C 357.872 321.704,357.588 322.745,358.014 323.009 C 358.508 323.314,360.400 321.419,360.400 320.618 C 360.400 320.278,360.628 320.000,360.906 320.000 C 361.408 320.000,362.800 317.265,362.800 316.277 C 362.800 315.993,362.999 315.561,363.243 315.317 C 364.028 314.532,364.226 309.600,363.473 309.600 C 363.057 309.600,362.733 310.120,362.538 311.100 M40.000 312.249 C 40.000 313.136,40.093 313.221,40.600 312.800 C 40.930 312.526,41.200 312.054,41.200 311.751 C 41.200 311.448,40.930 311.200,40.600 311.200 C 40.219 311.200,40.000 311.583,40.000 312.249 M41.455 316.600 C 41.582 316.930,41.846 317.200,42.043 317.200 C 42.239 317.200,42.400 316.930,42.400 316.600 C 42.400 316.270,42.136 316.000,41.813 316.000 C 41.455 316.000,41.315 316.235,41.455 316.600 M42.678 318.657 C 42.940 318.764,43.049 319.155,42.919 319.526 C 42.734 320.052,42.793 320.098,43.186 319.735 C 43.746 319.219,43.419 318.382,42.676 318.432 C 42.309 318.456,42.309 318.508,42.678 318.657 M354.000 325.380 C 348.261 328.645,343.972 329.789,339.154 329.341 C 337.625 329.199,336.280 328.929,336.164 328.741 C 335.904 328.321,333.595 328.284,333.613 328.700 C 333.646 329.476,334.791 330.400,335.720 330.400 C 336.288 330.400,336.864 330.580,337.000 330.800 C 337.141 331.029,339.196 331.200,341.800 331.200 C 344.404 331.200,346.459 331.029,346.600 330.800 C 346.736 330.580,347.242 330.399,347.724 330.399 C 348.911 330.397,353.825 327.884,355.065 326.644 C 356.788 324.921,356.146 324.159,354.000 325.380 M50.400 327.557 C 50.400 327.754,50.685 328.024,51.033 328.157 C 51.927 328.500,52.000 328.473,52.000 327.800 C 52.000 327.467,51.644 327.200,51.200 327.200 C 50.760 327.200,50.400 327.361,50.400 327.557 M52.962 328.862 C 52.773 329.167,52.854 329.214,53.199 329.001 C 53.515 328.805,53.895 328.911,54.161 329.269 C 54.720 330.022,56.513 330.529,56.281 329.869 C 56.191 329.611,55.821 329.453,55.459 329.518 C 55.081 329.585,54.800 329.372,54.800 329.018 C 54.800 328.299,53.384 328.179,52.962 328.862 M68.400 329.733 C 68.400 330.027,68.653 330.267,68.962 330.267 C 69.271 330.267,69.432 330.027,69.319 329.733 C 69.207 329.440,68.954 329.200,68.757 329.200 C 68.561 329.200,68.400 329.440,68.400 329.733 M58.400 330.400 C 58.400 330.840,58.484 331.200,58.586 331.200 C 58.688 331.200,58.965 330.840,59.200 330.400 C 59.542 329.761,59.504 329.600,59.014 329.600 C 58.667 329.600,58.400 329.947,58.400 330.400 M65.412 329.980 C 65.283 330.189,65.543 330.555,65.989 330.794 C 66.680 331.164,66.800 331.108,66.800 330.414 C 66.800 329.587,65.841 329.287,65.412 329.980 M207.600 384.358 C 207.600 384.724,223.036 400.145,223.585 400.328 C 223.813 400.404,224.000 400.189,224.000 399.849 C 224.000 399.083,220.941 396.000,220.181 396.000 C 219.851 396.000,219.719 395.756,219.855 395.400 C 220.020 394.972,219.815 394.798,219.143 394.794 C 218.416 394.789,218.333 394.704,218.779 394.421 C 219.231 394.135,219.113 393.993,218.241 393.775 C 217.589 393.611,217.311 393.379,217.573 393.216 C 217.853 393.044,217.641 392.765,217.011 392.478 C 216.455 392.225,216.000 391.833,216.000 391.609 C 216.000 391.384,215.750 391.200,215.443 391.200 C 215.137 391.200,214.772 390.743,214.632 390.184 C 214.491 389.625,214.202 389.275,213.988 389.407 C 213.775 389.539,213.600 389.367,213.600 389.024 C 213.600 388.681,213.330 388.400,213.000 388.400 C 212.670 388.400,212.400 388.151,212.400 387.847 C 212.400 387.542,212.035 387.198,211.589 387.081 C 211.142 386.964,210.827 386.718,210.889 386.534 C 211.055 386.036,209.452 384.559,208.463 384.301 C 207.988 384.176,207.600 384.202,207.600 384.358 " stroke="none" fill="#f9d781" fill-rule="evenodd"></path></g></svg>